<svg width="442" height="367" viewBox="0 0 442 367" fill="none" xmlns="http://www.w3.org/2000/svg">
<g opacity="0.7">
<path opacity="0.7" d="M279.285 165.193C279.323 153.581 276.536 142.133 271.163 131.833C268.612 126.996 266.285 123.989 264.475 122.144C263.792 121.422 262.9 120.93 261.924 120.738C260.947 120.546 259.935 120.663 259.028 121.072C258.304 121.327 257.649 121.748 257.117 122.302C254.695 124.804 252.507 128.111 250.596 131.633C244.943 142.174 242.009 153.953 242.059 165.907V173.085H237.444V89.6852C237.444 72.2047 233.522 54.9578 225.839 39.6457C222.199 32.3971 218.879 27.8935 216.323 25.1246C215.704 24.4208 214.941 23.8568 214.086 23.4705C213.231 23.0841 212.303 22.8842 211.364 22.8842C210.425 22.8842 209.497 23.0841 208.642 23.4705C207.787 23.8568 207.024 24.4208 206.405 25.1246C202.946 28.8752 199.826 33.8315 197.098 39.1024C189.02 54.729 184.916 72.4621 184.916 90.4621V173.085H180.927V165.564C180.976 153.61 178.042 141.831 172.389 131.29C170.478 127.773 168.29 124.465 165.868 121.958C165.171 121.226 164.258 120.733 163.262 120.552C162.266 120.37 161.238 120.509 160.326 120.948L160.494 121.039C159.909 121.297 159.38 121.666 158.936 122.125C157.145 123.97 154.818 126.977 152.248 131.814C146.875 142.114 144.088 153.562 144.126 165.174V289.863H158.363L156.81 300.114V330.762H168.448V300.114L166.895 289.863H180.927V176.311H184.916V289.353H196.286L194.652 300.109V330.762H206.295V300.114L204.661 289.358H219.982L218.348 300.114V330.762H229.991V300.114L228.357 289.358H237.434V176.311H242.049V290.034H245.79V289.863H258.159L256.606 300.114V330.762H268.249V300.114L266.696 289.863H279.285V165.193Z" fill="url(#paint0_linear_4_148)"/>
</g>
<path d="M170.765 294.138H159.744L161.712 280.789H168.797L170.765 294.138Z" fill="#535461"/>
<g opacity="0.1">
<path opacity="0.1" d="M161.162 286.088H169.346L168.797 282.357H161.712L161.162 286.088Z" fill="black"/>
</g>
<path d="M265.244 294.138H254.222L256.191 280.789H263.276L265.244 294.138Z" fill="#535461"/>
<g opacity="0.1">
<path opacity="0.1" d="M255.641 286.088H263.825L263.276 282.357H256.191L255.641 286.088Z" fill="black"/>
</g>
<path d="M206.591 294.138H195.565L197.533 280.789H204.623L206.591 294.138Z" fill="#535461"/>
<g opacity="0.1">
<path opacity="0.1" d="M196.984 286.088H205.172L204.623 282.357H197.533L196.984 286.088Z" fill="black"/>
</g>
<path d="M229.026 294.138H218.005L219.973 280.789H227.058L229.026 294.138Z" fill="#535461"/>
<g opacity="0.1">
<path opacity="0.1" d="M219.423 286.088H227.612L227.058 282.357H219.973L219.423 286.088Z" fill="black"/>
</g>
<path d="M249.497 170.44H170.765V173.58H249.497V170.44Z" fill="#535461"/>
<path d="M261.67 120.815C261.254 120.357 260.747 119.99 260.18 119.74C259.614 119.489 259.001 119.36 258.381 119.36C257.761 119.36 257.149 119.489 256.582 119.74C256.016 119.99 255.508 120.357 255.092 120.815C252.799 123.25 250.73 126.472 248.919 129.898C243.561 140.203 240.789 151.65 240.841 163.258V284.158H275.683V162.757C275.727 151.468 273.089 140.328 267.986 130.251C265.569 125.542 263.366 122.611 261.67 120.815Z" fill="#E0E0E0"/>
<path d="M161.76 120.815C162.176 120.357 162.683 119.99 163.25 119.74C163.816 119.489 164.429 119.36 165.049 119.36C165.669 119.36 166.282 119.489 166.848 119.74C167.415 119.99 167.922 120.357 168.338 120.815C170.631 123.25 172.7 126.472 174.511 129.898C179.869 140.203 182.641 151.65 182.589 163.258V284.158H147.738V162.757C147.694 151.468 150.332 140.328 155.434 130.251C157.847 125.542 160.049 122.611 161.76 120.815Z" fill="#E0E0E0"/>
<path d="M147.934 165.336L156.199 165.374V175.544H147.934V165.336Z" fill="#535461"/>
<path d="M174.31 165.336L182.575 165.374V175.544H174.31V165.336Z" fill="#535461"/>
<path d="M240.836 165.336L249.106 165.374V175.544H240.836V165.336Z" fill="#535461"/>
<path d="M267.212 165.336L275.482 165.374V175.544H267.212V165.336Z" fill="#535461"/>
<g opacity="0.1">
<path opacity="0.1" d="M174.496 129.741C172.69 126.314 170.617 123.093 168.324 120.657C167.676 119.943 166.811 119.461 165.863 119.282C164.914 119.104 163.932 119.241 163.069 119.671C163.566 119.919 164.016 120.253 164.397 120.657C166.69 123.093 168.759 126.314 170.569 129.741C175.927 140.045 178.699 151.492 178.648 163.101V283.991H182.585V163.115C182.635 151.501 179.86 140.049 174.496 129.741Z" fill="black"/>
</g>
<g opacity="0.1">
<path opacity="0.1" d="M252.053 130.074C253.859 126.648 255.933 123.426 258.226 120.991C258.655 120.53 259.174 120.16 259.75 119.904C258.898 119.532 257.951 119.437 257.042 119.632C256.133 119.827 255.309 120.303 254.686 120.991C252.393 123.426 250.324 126.648 248.513 130.074C243.155 140.379 240.383 151.826 240.435 163.434V284.325H243.98V163.453C243.923 151.839 246.694 140.385 252.053 130.074Z" fill="black"/>
</g>
<path d="M170.765 294.138H159.744V323.98H170.765V294.138Z" fill="url(#paint1_linear_4_148)"/>
<path d="M206.586 294.138H195.565V323.98H206.586V294.138Z" fill="url(#paint2_linear_4_148)"/>
<path d="M229.026 294.138H218.005V323.98H229.026V294.138Z" fill="url(#paint3_linear_4_148)"/>
<path d="M265.244 294.138H254.222V323.98H265.244V294.138Z" fill="url(#paint4_linear_4_148)"/>
<path d="M216.079 26.0254C215.503 25.3427 214.785 24.7939 213.974 24.4174C213.163 24.0409 212.28 23.8458 211.385 23.8458C210.491 23.8458 209.607 24.0409 208.797 24.4174C207.986 24.7939 207.267 25.3427 206.692 26.0254C203.419 29.6759 200.481 34.5035 197.882 39.6409C190.238 54.8625 186.349 72.1381 186.349 89.6567V283.663H236.078V88.8751C236.078 71.8521 232.366 55.0388 225.089 40.1651C221.645 33.1072 218.501 28.7227 216.079 26.0254Z" fill="#EEEEEE"/>
<path d="M218.587 47.5757H203.151C200.249 47.5757 197.896 49.9228 197.896 52.818V54.1952C197.896 57.0905 200.249 59.4375 203.151 59.4375H218.587C221.49 59.4375 223.843 57.0905 223.843 54.1952V52.818C223.843 49.9228 221.49 47.5757 218.587 47.5757Z" fill="#00E676"/>
<g opacity="0.7">
<path opacity="0.7" d="M327.059 320.721C325.428 310.906 320.148 302.065 312.273 295.96C304.399 289.855 294.507 286.935 284.57 287.781C274.632 288.627 265.38 293.177 258.656 300.524C251.932 307.872 248.23 317.477 248.289 327.426C248.289 327.621 248.289 327.812 248.289 328.007C246.822 328.229 245.37 328.539 243.941 328.937C242.111 321.666 238.06 315.143 232.35 310.271C226.639 305.399 219.551 302.419 212.067 301.743C204.583 301.067 197.074 302.729 190.579 306.499C184.084 310.269 178.924 315.96 175.815 322.784C172.61 321.551 169.244 320.784 165.821 320.506C165.275 317.414 164.359 314.398 163.093 311.523C162.498 302.452 158.498 293.938 151.888 287.679C145.279 281.421 136.548 277.878 127.436 277.758C118.324 277.637 109.501 280.949 102.729 287.03C95.9558 293.112 91.7306 301.518 90.8958 310.57C89.02 314.532 87.8218 318.78 87.351 323.137C79.058 326.579 72.3413 332.969 68.5025 341.07C64.6638 349.17 63.9765 358.404 66.5739 366.981H356.842C358.355 361.978 358.763 356.707 358.037 351.532C357.312 346.357 355.47 341.4 352.64 337.003C349.809 332.606 346.056 328.874 341.64 326.063C337.224 323.252 332.25 321.429 327.059 320.721Z" fill="url(#paint5_linear_4_148)"/>
</g>
<path d="M130.286 348.933C149.502 348.933 165.08 333.394 165.08 314.225C165.08 295.056 149.502 279.516 130.286 279.516C111.069 279.516 95.4916 295.056 95.4916 314.225C95.4916 333.394 111.069 348.933 130.286 348.933Z" fill="url(#paint6_linear_4_148)"/>
<path d="M130.114 365.246C151.156 365.246 168.214 348.23 168.214 327.24C168.214 306.25 151.156 289.234 130.114 289.234C109.072 289.234 92.0137 306.25 92.0137 327.24C92.0137 348.23 109.072 365.246 130.114 365.246Z" fill="url(#paint7_linear_4_148)"/>
<path d="M284.951 365.246C305.993 365.246 323.051 348.23 323.051 327.24C323.051 306.25 305.993 289.234 284.951 289.234C263.909 289.234 246.851 306.25 246.851 327.24C246.851 348.23 263.909 365.246 284.951 365.246Z" fill="url(#paint8_linear_4_148)"/>
<path d="M283.035 365.246C302.251 365.246 317.829 349.707 317.829 330.538C317.829 311.369 302.251 295.829 283.035 295.829C263.819 295.829 248.241 311.369 248.241 330.538C248.241 349.707 263.819 365.246 283.035 365.246Z" fill="url(#paint9_linear_4_148)"/>
<path d="M243.717 337.133C243.722 342.622 242.421 348.034 239.919 352.922C237.417 357.811 233.787 362.036 229.327 365.251H188.513C183.683 361.768 179.829 357.106 177.323 351.712C174.816 346.317 173.74 340.371 174.198 334.443C174.655 328.515 176.631 322.803 179.936 317.856C183.241 312.908 187.765 308.889 193.073 306.185C198.382 303.481 204.297 302.182 210.253 302.413C216.209 302.643 222.006 304.395 227.088 307.502C232.17 310.608 236.368 314.964 239.279 320.152C242.19 325.341 243.716 331.188 243.712 337.133H243.717Z" fill="url(#paint10_linear_4_148)"/>
<path d="M286.867 362.125C286.867 363.164 286.82 364.191 286.728 365.208C286.732 365.222 286.732 365.237 286.728 365.251H217.417C217.321 364.222 217.274 363.178 217.274 362.129C217.268 353.824 220.25 345.792 225.679 339.495C231.108 333.198 238.622 329.054 246.856 327.817C248.576 327.558 250.313 327.428 252.053 327.426C252.942 327.426 253.826 327.459 254.7 327.521C260.936 327.997 266.929 330.139 272.049 333.723C277.168 337.308 281.226 342.201 283.795 347.89C283.938 348.204 284.077 348.523 284.206 348.843C285.963 353.052 286.867 357.566 286.867 362.125Z" fill="url(#paint11_linear_4_148)"/>
<path d="M352.628 355.181C352.632 358.591 352.13 361.983 351.138 365.246H284.54C282.93 359.909 282.624 354.265 283.647 348.786C283.704 348.485 283.761 348.18 283.828 347.885C285.505 340.125 289.796 333.172 295.987 328.185C302.178 323.198 309.896 320.478 317.853 320.477C318.947 320.477 320.022 320.525 321.088 320.63C321.565 320.668 322.043 320.725 322.521 320.787C330.86 321.919 338.506 326.027 344.041 332.351C349.577 338.675 352.628 346.786 352.628 355.181Z" fill="url(#paint12_linear_4_148)"/>
<path d="M138.89 365.251C139.005 364.889 139.105 364.527 139.205 364.16C140.789 358.25 140.781 352.028 139.18 346.123C137.58 340.218 134.444 334.84 130.091 330.532C125.738 326.223 120.321 323.139 114.389 321.589C108.457 320.039 102.22 320.08 96.3086 321.707C94.9244 322.086 93.5663 322.554 92.2429 323.108C84.2744 326.415 77.8207 332.556 74.1328 340.339C70.4449 348.123 69.7856 356.996 72.2828 365.237H138.89V365.251Z" fill="url(#paint13_linear_4_148)"/>
<g opacity="0.7">
<path opacity="0.7" d="M339.404 293.866C342.929 293.866 345.787 291.015 345.787 287.499C345.787 283.983 342.929 281.132 339.404 281.132C335.879 281.132 333.022 283.983 333.022 287.499C333.022 291.015 335.879 293.866 339.404 293.866Z" fill="url(#paint14_linear_4_148)"/>
</g>
<path d="M339.404 293.399C342.671 293.399 345.319 290.757 345.319 287.499C345.319 284.241 342.671 281.599 339.404 281.599C336.138 281.599 333.49 284.241 333.49 287.499C333.49 290.757 336.138 293.399 339.404 293.399Z" fill="url(#paint15_linear_4_148)"/>
<g opacity="0.7">
<path opacity="0.7" d="M368.633 355.877C372.477 355.877 375.594 352.768 375.594 348.933C375.594 345.099 372.477 341.99 368.633 341.99C364.788 341.99 361.672 345.099 361.672 348.933C361.672 352.768 364.788 355.877 368.633 355.877Z" fill="url(#paint16_linear_4_148)"/>
</g>
<path d="M368.633 355.529C372.284 355.529 375.245 352.576 375.245 348.933C375.245 345.291 372.284 342.338 368.633 342.338C364.981 342.338 362.021 345.291 362.021 348.933C362.021 352.576 364.981 355.529 368.633 355.529Z" fill="url(#paint17_linear_4_148)"/>
<g opacity="0.7">
<path opacity="0.7" d="M70.7875 316.994C75.0118 316.994 78.4362 313.578 78.4362 309.364C78.4362 305.15 75.0118 301.734 70.7875 301.734C66.5632 301.734 63.1388 305.15 63.1388 309.364C63.1388 313.578 66.5632 316.994 70.7875 316.994Z" fill="url(#paint18_linear_4_148)"/>
</g>
<path d="M70.7875 316.651C74.8218 316.651 78.0922 313.388 78.0922 309.364C78.0922 305.34 74.8218 302.077 70.7875 302.077C66.7532 302.077 63.4828 305.34 63.4828 309.364C63.4828 313.388 66.7532 316.651 70.7875 316.651Z" fill="url(#paint19_linear_4_148)"/>
<g opacity="0.4">
<path opacity="0.4" d="M358.939 8.32563C357.244 6.09082 355.12 4.21485 352.69 2.80698C349.903 1.2094 346.786 0.271881 343.578 0.066768C340.37 -0.138345 337.158 0.394433 334.19 1.62399C331.221 2.85354 328.575 4.747 326.457 7.15825C324.338 9.56951 322.803 12.4341 321.97 15.531C321.137 18.6278 321.029 21.8742 321.653 25.0196C322.277 28.1649 323.617 31.1251 325.57 33.6719C327.523 36.2186 330.037 38.2837 332.916 39.7078C335.796 41.1319 338.966 41.877 342.18 41.8855C342.624 41.8855 343.069 41.8855 343.508 41.8426C347.29 41.6047 350.936 40.3493 354.06 38.21C357.184 36.0707 359.669 33.1272 361.251 29.6923C362.832 26.2574 363.452 22.4592 363.043 18.7014C362.634 14.9435 361.213 11.3662 358.93 8.34946L358.939 8.32563Z" fill="url(#paint20_linear_4_148)"/>
</g>
<path opacity="0.2" d="M362.021 20.9309C362.021 25.9608 360.101 30.802 356.65 34.4697C353.2 38.1375 348.478 40.3564 343.446 40.6751C343.03 40.7037 342.61 40.718 342.19 40.718C339.149 40.7162 336.149 40.0168 333.422 38.6739C330.695 37.3311 328.315 35.3807 326.464 32.9735C324.614 30.5664 323.343 27.767 322.751 24.7918C322.158 21.8165 322.259 18.7452 323.046 15.8151C323.833 12.8851 325.285 10.1749 327.29 7.894C329.295 5.61312 331.798 3.82269 334.607 2.66112C337.417 1.49955 340.456 0.997967 343.49 1.19514C346.525 1.39232 349.473 2.28298 352.108 3.79825C354.405 5.12926 356.414 6.90321 358.017 9.01667C360.621 12.445 362.027 16.6298 362.021 20.9309Z" fill="#00E676"/>
<path opacity="0.05" d="M337.307 8.38284C336.283 8.8237 335.294 9.34313 334.35 9.93645C333.719 10.2852 333.178 10.7745 332.768 11.3662C332.568 11.6629 332.458 12.0109 332.452 12.3685C332.445 12.726 332.542 13.078 332.73 13.382C333.208 14.0397 334.163 14.1445 334.961 14.1874C335.695 14.3428 336.456 14.3011 337.168 14.0666C337.88 13.8322 338.516 13.4134 339.013 12.853L340.718 11.309C341.311 10.7752 341.96 10.0365 341.702 9.28355C341.506 8.7069 340.857 8.42573 340.269 8.33042C338.803 8.04263 337.282 8.30934 336.003 9.07863" fill="#F55F44"/>
<path opacity="0.05" d="M330.184 29.7807C330.759 29.7807 331.225 29.3156 331.225 28.7418C331.225 28.168 330.759 27.7029 330.184 27.7029C329.609 27.7029 329.142 28.168 329.142 28.7418C329.142 29.3156 329.609 29.7807 330.184 29.7807Z" fill="#F55F44"/>
<path opacity="0.05" d="M351.41 25.9634C353.523 25.9634 355.237 24.2543 355.237 22.1461C355.237 20.0379 353.523 18.3288 351.41 18.3288C349.297 18.3288 347.583 20.0379 347.583 22.1461C347.583 24.2543 349.297 25.9634 351.41 25.9634Z" fill="#F55F44"/>
<path opacity="0.05" d="M358.022 9.01188C358.007 10.0093 357.705 10.9814 357.152 11.8127C356.599 12.6439 355.819 13.2994 354.903 13.701C353.988 14.1027 352.976 14.2337 351.988 14.0785C351.001 13.9233 350.078 13.4884 349.331 12.8255C348.584 12.1626 348.043 11.2996 347.773 10.3391C347.503 9.37859 347.515 8.36095 347.808 7.40716C348.101 6.45337 348.662 5.60355 349.425 4.95872C350.188 4.31389 351.121 3.90118 352.112 3.76964C354.412 5.10764 356.421 6.88983 358.022 9.01188Z" fill="#F55F44"/>
<path opacity="0.05" d="M358.404 32.3256C356.698 34.7472 354.468 36.7549 351.879 38.2002C349.289 39.6455 346.407 40.4913 343.446 40.675C343.422 40.4034 343.408 40.127 343.408 39.8506C343.408 38.1141 343.892 36.412 344.806 34.9339C345.72 33.4559 347.027 32.26 348.582 31.4797C350.137 30.6994 351.879 30.3653 353.613 30.5146C355.348 30.664 357.006 31.2909 358.404 32.3256Z" fill="#F55F44"/>
<path opacity="0.25" d="M345.319 166.713C346.664 166.713 347.755 165.625 347.755 164.282C347.755 162.94 346.664 161.852 345.319 161.852C343.973 161.852 342.882 162.94 342.882 164.282C342.882 165.625 343.973 166.713 345.319 166.713Z" fill="#535461"/>
<path opacity="0.25" d="M20.4522 230.573C21.7979 230.573 22.8887 229.485 22.8887 228.142C22.8887 226.8 21.7979 225.712 20.4522 225.712C19.1066 225.712 18.0157 226.8 18.0157 228.142C18.0157 229.485 19.1066 230.573 20.4522 230.573Z" fill="#535461"/>
<path opacity="0.25" d="M439.435 244.393C440.78 244.393 441.871 243.305 441.871 241.963C441.871 240.621 440.78 239.532 439.435 239.532C438.089 239.532 436.998 240.621 436.998 241.963C436.998 243.305 438.089 244.393 439.435 244.393Z" fill="#535461"/>
<path opacity="0.25" d="M137.939 129.226C139.285 129.226 140.376 128.138 140.376 126.796C140.376 125.453 139.285 124.365 137.939 124.365C136.594 124.365 135.503 125.453 135.503 126.796C135.503 128.138 136.594 129.226 137.939 129.226Z" fill="#535461"/>
<path opacity="0.25" d="M129.937 73.3437C131.283 73.3437 132.374 72.2556 132.374 70.9133C132.374 69.5709 131.283 68.4828 129.937 68.4828C128.591 68.4828 127.501 69.5709 127.501 70.9133C127.501 72.2556 128.591 73.3437 129.937 73.3437Z" fill="#535461"/>
<path opacity="0.25" d="M61.0415 184.065C62.3871 184.065 63.478 182.977 63.478 181.634C63.478 180.292 62.3871 179.204 61.0415 179.204C59.6958 179.204 58.605 180.292 58.605 181.634C58.605 182.977 59.6958 184.065 61.0415 184.065Z" fill="#535461"/>
<path opacity="0.25" d="M405.691 184.489H403.523V182.33H402.639V184.489H400.47V185.375H402.639V187.534H403.523V185.375H405.691V184.489Z" fill="#535461"/>
<path opacity="0.25" d="M442 109.668H439.831V107.509H438.947V109.668H436.778V110.554H438.947V112.713H439.831V110.554H442V109.668Z" fill="#535461"/>
<path opacity="0.25" d="M287.387 67.868H285.218V65.7044H284.335V67.868H282.166V68.7497H284.335V70.9133H285.218V68.7497H287.387V67.868Z" fill="#535461"/>
<path opacity="0.25" d="M382.029 172.341H379.86V170.182H378.976V172.341H376.812V173.228H378.976V175.386H379.86V173.228H382.029V172.341Z" fill="#535461"/>
<path opacity="0.25" d="M302.694 244.188H300.53V242.03H299.646V244.188H297.477V245.075H299.646V247.234H300.53V245.075H302.694V244.188Z" fill="#535461"/>
<path opacity="0.25" d="M80.7055 95.9807H78.5366V93.8219H77.6527V95.9807H75.4838V96.8624H77.6527V99.026H78.5366V96.8624H80.7055V95.9807Z" fill="#535461"/>
<path opacity="0.25" d="M5.22175 124.098H3.05279V121.939H2.16896V124.098H0V124.98H2.16896V127.144H3.05279V124.98H5.22175V124.098Z" fill="#535461"/>
<path opacity="0.25" d="M110.626 212.606H108.458V210.443H107.574V212.606H105.41V213.488H107.574V215.652H108.458V213.488H110.626V212.606Z" fill="#535461"/>
<path d="M368.633 355.529C372.284 355.529 375.245 352.576 375.245 348.933C375.245 345.291 372.284 342.338 368.633 342.338C364.981 342.338 362.021 345.291 362.021 348.933C362.021 352.576 364.981 355.529 368.633 355.529Z" fill="url(#paint21_linear_4_148)"/>
<g opacity="0.4">
<path opacity="0.4" d="M128.494 165.998C127.687 164.933 126.675 164.039 125.518 163.367C124.191 162.597 122.703 162.141 121.171 162.037C119.639 161.933 118.103 162.182 116.683 162.766C115.263 163.349 113.997 164.251 112.983 165.402C111.969 166.553 111.235 167.921 110.837 169.401C110.439 170.881 110.388 172.432 110.689 173.935C110.989 175.437 111.633 176.85 112.57 178.064C113.506 179.278 114.711 180.261 116.09 180.935C117.469 181.61 118.985 181.958 120.521 181.954C120.731 181.954 120.946 181.954 121.151 181.954C122.952 181.839 124.687 181.24 126.174 180.221C127.661 179.202 128.843 177.8 129.596 176.165C130.349 174.529 130.644 172.721 130.45 170.932C130.256 169.143 129.58 167.44 128.494 166.003V165.998Z" fill="url(#paint22_linear_4_148)"/>
</g>
<path opacity="0.2" d="M129.961 172.003C129.961 174.398 129.046 176.704 127.402 178.451C125.759 180.197 123.51 181.254 121.113 181.405C120.917 181.405 120.717 181.405 120.516 181.405C119.068 181.404 117.64 181.07 116.341 180.431C115.043 179.791 113.91 178.862 113.029 177.715C112.148 176.569 111.543 175.236 111.261 173.819C110.979 172.402 111.028 170.94 111.402 169.545C111.777 168.149 112.469 166.859 113.423 165.773C114.378 164.687 115.57 163.834 116.907 163.281C118.245 162.727 119.692 162.488 121.137 162.582C122.582 162.675 123.986 163.099 125.241 163.82C126.334 164.454 127.291 165.298 128.055 166.303C129.3 167.943 129.97 169.946 129.961 172.003Z" fill="#00E676"/>
<path opacity="0.1" d="M118.189 166.027C117.693 166.235 117.214 166.482 116.756 166.765C116.456 166.929 116.198 167.159 116.001 167.437C115.91 167.58 115.862 167.745 115.862 167.914C115.862 168.083 115.91 168.248 116.001 168.39C116.14 168.526 116.307 168.631 116.49 168.697C116.673 168.762 116.868 168.788 117.062 168.772C117.408 168.842 117.767 168.821 118.102 168.71C118.438 168.599 118.738 168.401 118.973 168.138L119.785 167.404C120.067 167.147 120.377 166.799 120.263 166.451C120.199 166.319 120.102 166.206 119.981 166.123C119.861 166.039 119.721 165.988 119.575 165.974C118.877 165.838 118.153 165.965 117.544 166.332" fill="#F55F44"/>
<path opacity="0.1" d="M114.797 176.216C115.072 176.216 115.294 175.994 115.294 175.72C115.294 175.446 115.072 175.224 114.797 175.224C114.523 175.224 114.3 175.446 114.3 175.72C114.3 175.994 114.523 176.216 114.797 176.216Z" fill="#F55F44"/>
<path opacity="0.1" d="M124.906 174.4C125.914 174.4 126.731 173.585 126.731 172.579C126.731 171.574 125.914 170.759 124.906 170.759C123.898 170.759 123.081 171.574 123.081 172.579C123.081 173.585 123.898 174.4 124.906 174.4Z" fill="#F55F44"/>
<path opacity="0.1" d="M128.055 166.346C128.049 166.821 127.906 167.284 127.644 167.68C127.382 168.076 127.011 168.389 126.576 168.581C126.14 168.773 125.659 168.836 125.189 168.763C124.719 168.69 124.279 168.484 123.923 168.169C123.567 167.854 123.309 167.444 123.18 166.987C123.05 166.53 123.056 166.046 123.194 165.592C123.333 165.138 123.6 164.733 123.963 164.425C124.326 164.118 124.769 163.921 125.241 163.858C126.335 164.493 127.291 165.339 128.055 166.346Z" fill="#F55F44"/>
<path opacity="0.1" d="M128.241 177.431C127.429 178.585 126.367 179.541 125.134 180.23C123.901 180.919 122.528 181.322 121.118 181.41C121.118 181.282 121.118 181.148 121.118 181.015C121.115 180.184 121.345 179.369 121.781 178.661C122.218 177.953 122.843 177.381 123.588 177.008C124.333 176.636 125.167 176.478 125.996 176.553C126.826 176.628 127.618 176.932 128.284 177.431H128.241Z" fill="#F55F44"/>
<g opacity="0.1">
<path opacity="0.1" d="M235.81 96.2905H186.602V98.1968H235.81V96.2905Z" fill="black"/>
</g>
<defs>
<linearGradient id="paint0_linear_4_148" x1="211.708" y1="330.762" x2="211.708" y2="22.8991" gradientUnits="userSpaceOnUse">
<stop stop-color="#808080" stop-opacity="0.25"/>
<stop offset="0.54" stop-color="#808080" stop-opacity="0.12"/>
<stop offset="1" stop-color="#808080" stop-opacity="0.1"/>
</linearGradient>
<linearGradient id="paint1_linear_4_148" x1="165.252" y1="294.138" x2="165.252" y2="323.985" gradientUnits="userSpaceOnUse">
<stop stop-color="#E0E0E0"/>
<stop offset="0.31" stop-color="#FCCC63"/>
<stop offset="0.77" stop-color="#F55F44"/>
</linearGradient>
<linearGradient id="paint2_linear_4_148" x1="4834.44" y1="18713" x2="4834.44" y2="20582.1" gradientUnits="userSpaceOnUse">
<stop stop-color="#E0E0E0"/>
<stop offset="0.31" stop-color="#FCCC63"/>
<stop offset="0.77" stop-color="#F55F44"/>
</linearGradient>
<linearGradient id="paint3_linear_4_148" x1="5374.54" y1="18713" x2="5374.54" y2="20582.1" gradientUnits="userSpaceOnUse">
<stop stop-color="#E0E0E0"/>
<stop offset="0.31" stop-color="#FCCC63"/>
<stop offset="0.77" stop-color="#F55F44"/>
</linearGradient>
<linearGradient id="paint4_linear_4_148" x1="6246.32" y1="18713" x2="6246.32" y2="20582.1" gradientUnits="userSpaceOnUse">
<stop stop-color="#E0E0E0"/>
<stop offset="0.31" stop-color="#FCCC63"/>
<stop offset="0.77" stop-color="#F55F44"/>
</linearGradient>
<linearGradient id="paint5_linear_4_148" x1="170376" y1="74786.2" x2="170376" y2="58077.7" gradientUnits="userSpaceOnUse">
<stop stop-color="#808080" stop-opacity="0.25"/>
<stop offset="0.54" stop-color="#808080" stop-opacity="0.12"/>
<stop offset="1" stop-color="#808080" stop-opacity="0.1"/>
</linearGradient>
<linearGradient id="paint6_linear_4_148" x1="130.286" y1="279.516" x2="130.286" y2="348.933" gradientUnits="userSpaceOnUse">
<stop stop-color="#F2F2F2"/>
<stop offset="0.31" stop-color="#E6E6E6"/>
<stop offset="0.77" stop-color="#CCCCCC"/>
</linearGradient>
<linearGradient id="paint7_linear_4_148" x1="20845.2" y1="46422" x2="20845.2" y2="58546" gradientUnits="userSpaceOnUse">
<stop stop-color="#F2F2F2"/>
<stop offset="0.31" stop-color="#E6E6E6"/>
<stop offset="0.77" stop-color="#CCCCCC"/>
</linearGradient>
<linearGradient id="paint8_linear_4_148" x1="45696.5" y1="46422" x2="45696.5" y2="58546" gradientUnits="userSpaceOnUse">
<stop stop-color="#F2F2F2"/>
<stop offset="0.31" stop-color="#E6E6E6"/>
<stop offset="0.77" stop-color="#CCCCCC"/>
</linearGradient>
<linearGradient id="paint9_linear_4_148" x1="41475.2" y1="43386.4" x2="41475.2" y2="53497.6" gradientUnits="userSpaceOnUse">
<stop stop-color="#F2F2F2"/>
<stop offset="0.31" stop-color="#E6E6E6"/>
<stop offset="0.77" stop-color="#CCCCCC"/>
</linearGradient>
<linearGradient id="paint10_linear_4_148" x1="40187.1" y1="44278.5" x2="40187.1" y2="52565.9" gradientUnits="userSpaceOnUse">
<stop stop-color="#F2F2F2"/>
<stop offset="0.31" stop-color="#E6E6E6"/>
<stop offset="0.77" stop-color="#CCCCCC"/>
</linearGradient>
<linearGradient id="paint11_linear_4_148" x1="46498.8" y1="28771.2" x2="46498.8" y2="31774.2" gradientUnits="userSpaceOnUse">
<stop stop-color="#F2F2F2"/>
<stop offset="0.31" stop-color="#E6E6E6"/>
<stop offset="0.77" stop-color="#CCCCCC"/>
</linearGradient>
<linearGradient id="paint12_linear_4_148" x1="56129.1" y1="33333.4" x2="56129.1" y2="37539.9" gradientUnits="userSpaceOnUse">
<stop stop-color="#F2F2F2"/>
<stop offset="0.31" stop-color="#E6E6E6"/>
<stop offset="0.77" stop-color="#CCCCCC"/>
</linearGradient>
<linearGradient id="paint13_linear_4_148" x1="25013.9" y1="33352.6" x2="25013.9" y2="37561.6" gradientUnits="userSpaceOnUse">
<stop stop-color="#F2F2F2"/>
<stop offset="0.31" stop-color="#E6E6E6"/>
<stop offset="0.77" stop-color="#CCCCCC"/>
</linearGradient>
<linearGradient id="paint14_linear_4_148" x1="9401.91" y1="8133.27" x2="9401.91" y2="7793.02" gradientUnits="userSpaceOnUse">
<stop stop-color="#808080" stop-opacity="0.25"/>
<stop offset="0.54" stop-color="#808080" stop-opacity="0.12"/>
<stop offset="1" stop-color="#808080" stop-opacity="0.1"/>
</linearGradient>
<linearGradient id="paint15_linear_4_148" x1="8737.17" y1="7253.97" x2="8737.17" y2="7546.13" gradientUnits="userSpaceOnUse">
<stop stop-color="#F2F2F2"/>
<stop offset="0.31" stop-color="#E6E6E6"/>
<stop offset="0.77" stop-color="#CCCCCC"/>
</linearGradient>
<linearGradient id="paint16_linear_4_148" x1="11103.6" y1="10712.2" x2="11103.6" y2="10307.7" gradientUnits="userSpaceOnUse">
<stop stop-color="#808080" stop-opacity="0.25"/>
<stop offset="0.54" stop-color="#808080" stop-opacity="0.12"/>
<stop offset="1" stop-color="#808080" stop-opacity="0.1"/>
</linearGradient>
<linearGradient id="paint17_linear_4_148" x1="368.633" y1="342.338" x2="368.633" y2="355.529" gradientUnits="userSpaceOnUse">
<stop stop-color="#F2F2F2"/>
<stop offset="0.31" stop-color="#E0E0E0"/>
<stop offset="0.77" stop-color="#B3B3B3"/>
</linearGradient>
<linearGradient id="paint18_linear_4_148" x1="2329.76" y1="10451.8" x2="2329.76" y2="9963.22" gradientUnits="userSpaceOnUse">
<stop stop-color="#808080" stop-opacity="0.25"/>
<stop offset="0.54" stop-color="#808080" stop-opacity="0.12"/>
<stop offset="1" stop-color="#808080" stop-opacity="0.1"/>
</linearGradient>
<linearGradient id="paint19_linear_4_148" x1="2228.16" y1="9539.59" x2="2228.16" y2="9985.39" gradientUnits="userSpaceOnUse">
<stop stop-color="#F2F2F2"/>
<stop offset="0.31" stop-color="#E6E6E6"/>
<stop offset="0.77" stop-color="#CCCCCC"/>
</linearGradient>
<linearGradient id="paint20_linear_4_148" x1="36100.2" y1="6396.06" x2="36100.2" y2="2718.94" gradientUnits="userSpaceOnUse">
<stop stop-color="#808080" stop-opacity="0.25"/>
<stop offset="0.54" stop-color="#808080" stop-opacity="0.12"/>
<stop offset="1" stop-color="#808080" stop-opacity="0.1"/>
</linearGradient>
<linearGradient id="paint21_linear_4_148" x1="10565.8" y1="9818.21" x2="10565.8" y2="10183.3" gradientUnits="userSpaceOnUse">
<stop stop-color="#F2F2F2"/>
<stop offset="0.31" stop-color="#E6E6E6"/>
<stop offset="0.77" stop-color="#CCCCCC"/>
</linearGradient>
<linearGradient id="paint22_linear_4_148" x1="7908.61" y1="9070.83" x2="7908.61" y2="8236.56" gradientUnits="userSpaceOnUse">
<stop stop-color="#808080" stop-opacity="0.25"/>
<stop offset="0.54" stop-color="#808080" stop-opacity="0.12"/>
<stop offset="1" stop-color="#808080" stop-opacity="0.1"/>
</linearGradient>
</defs>
</svg>
