<svg width="40" height="40" viewBox="0 0 40 40" fill="none" xmlns="http://www.w3.org/2000/svg">
<path d="M18.3817 4.2333C18.8767 3.95836 19.4337 3.81409 20 3.81409C20.5663 3.81409 21.1233 3.95836 21.6183 4.2333L34.1433 11.19C34.403 11.3344 34.6194 11.5456 34.77 11.8017C34.9206 12.0578 35 12.3495 35 12.6466V26.3716C34.9999 26.966 34.8408 27.5496 34.5392 28.0618C34.2377 28.5741 33.8047 28.9964 33.285 29.285L21.6183 35.7683C21.1233 36.0432 20.5663 36.1875 20 36.1875C19.4337 36.1875 18.8767 36.0432 18.3817 35.7683L6.715 29.285C6.19559 28.9965 5.76272 28.5745 5.46119 28.0626C5.15966 27.5506 5.00044 26.9674 5 26.3733V12.6466C4.99999 12.3495 5.0794 12.0578 5.23003 11.8017C5.38065 11.5456 5.59699 11.3344 5.85667 11.19L18.3833 4.2333H18.3817Z" stroke="#00E676" stroke-width="2" stroke-linecap="round" stroke-linejoin="round"/>
<path d="M12.5 7.5L27.5 15.8333V21.6667" stroke="#00E676" stroke-width="2" stroke-linecap="round" stroke-linejoin="round"/>
<path d="M10 20.5466L15 23.3333" stroke="#00E676" stroke-width="2" stroke-linecap="round" stroke-linejoin="round"/>
<path d="M20 20V35.8333M5 11.6666L20 20L5 11.6666ZM20 20L35 11.6666L20 20Z" stroke="#00E676" stroke-width="2" stroke-linejoin="round"/>
</svg>
