<svg width="40" height="40" viewBox="0 0 40 40" fill="none" xmlns="http://www.w3.org/2000/svg">
<path d="M18.3333 11.6666C25.6967 11.6666 31.6667 13.1583 31.6667 15C31.6667 16.8416 25.6967 18.3333 18.3333 18.3333C10.97 18.3333 5 16.8416 5 15C5 14.405 5.625 13.845 6.72167 13.36" stroke="#00E676" stroke-width="2" stroke-linecap="round" stroke-linejoin="round"/>
<path d="M5 15V30.5717C5 32.34 5.73333 34.0383 7.34833 34.76C9.37333 35.665 12.8517 36.6667 18.3333 36.6667C23.8167 36.6667 27.295 35.665 29.3183 34.76C30.9317 34.0383 31.6667 32.34 31.6667 30.5717V15" stroke="#00E676" stroke-width="2" stroke-linecap="round" stroke-linejoin="round"/>
<path d="M31.6666 16.6666C32.9927 16.6666 34.2645 17.1934 35.2022 18.1311C36.1398 19.0688 36.6666 20.3405 36.6666 21.6666C36.6666 22.9927 36.1398 24.2645 35.2022 25.2022C34.2645 26.1398 32.9927 26.6666 31.6666 26.6666" stroke="#00E676" stroke-width="2" stroke-linecap="round" stroke-linejoin="round"/>
<path d="M11.6666 5V11.6667" stroke="#00E676" stroke-width="2" stroke-linecap="round" stroke-linejoin="round"/>
<path d="M18.3334 3.33331V6.66665" stroke="#00E676" stroke-width="2" stroke-linecap="round" stroke-linejoin="round"/>
<path d="M25 6.66663V11.6666" stroke="#00E676" stroke-width="2" stroke-linecap="round" stroke-linejoin="round"/>
</svg>
