<svg width="65" height="49" viewBox="0 0 65 49" fill="none" xmlns="http://www.w3.org/2000/svg">
<path d="M62 0.0218238C61.7221 -0.00727459 61.442 -0.00727459 61.1641 0.0218238H4.08051C3.71465 0.0275524 3.35122 0.0832994 3 0.187563L32.4592 30L62 0.0218238Z" fill="white"/>
<path d="M64.7563 3L35.1812 32.5002C34.4201 33.2581 33.3904 33.6835 32.3172 33.6835C31.2439 33.6835 30.2143 33.2581 29.4531 32.5002L0.142188 3.2238C0.0520801 3.5555 0.00430358 3.89731 0 4.24104V44.931C0 46.0102 0.428012 47.0451 1.18988 47.8082C1.95175 48.5713 2.98506 49 4.0625 49H60.9375C62.0149 49 63.0483 48.5713 63.8101 47.8082C64.572 47.0451 65 46.0102 65 44.931V4.24104C64.9838 3.81717 64.9016 3.39843 64.7563 3V3ZM6.84531 44.931H4.02188V42.0217L18.7891 27.3529L21.6531 30.2216L6.84531 44.931ZM60.8969 44.931H58.0531L43.2453 30.2216L46.1094 27.3529L60.8766 42.0217L60.8969 44.931Z" fill="white"/>
</svg>
