<svg width="41" height="40" viewBox="0 0 41 40" fill="none" xmlns="http://www.w3.org/2000/svg">
<path d="M20.66 20.0001C21.5779 20.0001 22.322 19.2539 22.322 18.3334C22.322 17.4129 21.5779 16.6667 20.66 16.6667C19.742 16.6667 18.9979 17.4129 18.9979 18.3334C18.9979 19.2539 19.742 20.0001 20.66 20.0001Z" fill="white"/>
<path d="M27.3082 20.0001C28.2261 20.0001 28.9702 19.2539 28.9702 18.3334C28.9702 17.4129 28.2261 16.6667 27.3082 16.6667C26.3902 16.6667 25.6461 17.4129 25.6461 18.3334C25.6461 19.2539 26.3902 20.0001 27.3082 20.0001Z" fill="white"/>
<path d="M14.0118 20.0001C14.9297 20.0001 15.6738 19.2539 15.6738 18.3334C15.6738 17.4129 14.9297 16.6667 14.0118 16.6667C13.0939 16.6667 12.3497 17.4129 12.3497 18.3334C12.3497 19.2539 13.0939 20.0001 14.0118 20.0001Z" fill="white"/>
<path d="M32.2942 5H9.02567C7.70327 5 6.43503 5.52678 5.49995 6.46447C4.56487 7.40215 4.03955 8.67392 4.03955 10V35C4.04006 35.2953 4.11881 35.5852 4.26775 35.84C4.41669 36.0948 4.63046 36.3053 4.88719 36.45C5.13559 36.5912 5.41607 36.6658 5.70159 36.6667C5.9999 36.6666 6.29269 36.586 6.54923 36.4333L14.0118 31.9C14.2876 31.7353 14.6051 31.6543 14.9259 31.6667H32.2942C33.6166 31.6667 34.8849 31.1399 35.82 30.2022C36.755 29.2645 37.2804 27.9928 37.2804 26.6667V10C37.2804 8.67392 36.755 7.40215 35.82 6.46447C34.8849 5.52678 33.6166 5 32.2942 5ZM33.9563 26.6667C33.9563 27.1087 33.7812 27.5326 33.4695 27.8452C33.1578 28.1577 32.735 28.3333 32.2942 28.3333H14.9259C14.0181 28.3326 13.1274 28.5804 12.3498 29.05L7.36363 32.05V10C7.36363 9.55797 7.53874 9.13405 7.85043 8.82149C8.16213 8.50893 8.58487 8.33333 9.02567 8.33333H32.2942C32.735 8.33333 33.1578 8.50893 33.4695 8.82149C33.7812 9.13405 33.9563 9.55797 33.9563 10V26.6667Z" fill="white"/>
</svg>
