<svg width="50" height="50" viewBox="0 0 50 50" fill="none" xmlns="http://www.w3.org/2000/svg">
<path d="M13.7703 4.6875L12.6953 5.81094L5.81094 12.6953L4.6875 13.7703L15.9187 25L8.10625 32.8125L8.00781 33.3016L6.29844 41.8953L5.81094 44.1891L8.10625 43.7016L16.7 41.9922L17.1875 41.8937L25 34.0813L36.1812 45.2641L37.2562 44.1406L44.1406 37.2562L45.2641 36.1812L34.0813 25L41.7969 17.2844C42.3946 16.6889 42.8689 15.9813 43.1925 15.2021C43.5161 14.4229 43.6827 13.5875 43.6827 12.7438C43.6827 11.9 43.5161 11.0646 43.1925 10.2854C42.8689 9.50623 42.3946 8.7986 41.7969 8.20312C41.2025 7.60254 40.4955 7.12515 39.7164 6.79831C38.9372 6.47147 38.1012 6.3016 37.2562 6.29844C36.411 6.30139 35.5747 6.47116 34.7953 6.79801C34.0158 7.12486 33.3086 7.60236 32.7141 8.20312L25 15.9187L13.7703 4.6875ZM13.7703 9.13125L16.7969 12.2062L14.5016 14.5031L16.7484 16.7484L19.0437 14.4531L22.7531 18.1641L18.1156 22.8031L9.08281 13.7703L13.7703 9.13125ZM37.2547 9.32656C38.0672 9.32656 38.8922 9.69219 39.5984 10.4C41.0094 11.8109 41.0094 13.6297 39.5984 15.0391L38.575 16.0641L33.9344 11.425L34.9609 10.4C35.6688 9.69219 36.4453 9.32656 37.2562 9.32656H37.2547ZM31.7391 13.6234L36.3766 18.2625L17.4812 37.1562C16.447 35.1708 14.8268 33.5517 12.8406 32.5188L31.7391 13.6234ZM31.8844 27.1969L35.5953 30.9078L33.2516 33.2516L35.4984 35.4984L37.8422 33.1547L40.8203 36.1328L36.1328 40.8203L27.1969 31.8844L31.8844 27.1969ZM10.8406 35.0094C12.714 35.7967 14.204 37.2872 14.9906 39.1609L9.81406 40.1859L10.8406 35.0094Z" fill="white"/>
</svg>
