<svg width="40" height="40" viewBox="0 0 40 40" fill="none" xmlns="http://www.w3.org/2000/svg">
<path d="M36.5833 14.5349L36.5417 14.2549L36.4983 14.2649C36.2022 12.88 35.52 11.6072 34.5306 10.5938C33.5412 9.58048 32.2851 8.86796 30.9077 8.53872C29.5302 8.20949 28.0877 8.277 26.747 8.73343C25.4063 9.18987 24.2223 10.0166 23.3319 11.1179C22.4415 12.2192 21.8811 13.5502 21.7155 14.9567C21.55 16.3633 21.7861 17.7879 22.3966 19.0659C23.007 20.3438 23.9668 21.4228 25.1649 22.178C26.363 22.9332 27.7504 23.3337 29.1667 23.3333C29.5383 23.3333 29.895 23.2766 30.25 23.2249C30.135 23.6116 30.0167 24.0049 29.8267 24.3583C29.6367 24.8716 29.34 25.3166 29.045 25.7649C28.7983 26.2499 28.3633 26.5783 28.0433 26.9932C27.7083 27.3966 27.2517 27.6649 26.89 27.9999C26.535 28.3499 26.07 28.5249 25.7 28.7716C25.3133 28.9933 24.9767 29.2383 24.6167 29.3549L23.7183 29.7249L22.9283 30.0533L23.735 33.2849L24.73 33.0449C25.0483 32.9649 25.4367 32.8716 25.8783 32.7599C26.33 32.6766 26.8117 32.4483 27.3483 32.2399C27.8767 32.0016 28.4917 31.8433 29.0617 31.4616C29.635 31.0983 30.2967 30.7949 30.88 30.3083C31.445 29.8066 32.1267 29.3716 32.63 28.7349C33.18 28.1383 33.7233 27.5116 34.145 26.7983C34.6333 26.1183 34.965 25.3716 35.315 24.6333C35.6317 23.8949 35.8867 23.1399 36.095 22.4066C36.49 20.9366 36.6667 19.5399 36.735 18.3449C36.7917 17.1483 36.7583 16.1533 36.6883 15.4333C36.6649 15.1326 36.6299 14.8329 36.5833 14.5349ZM18.25 14.5349L18.2083 14.2549L18.165 14.2649C17.8689 12.88 17.1866 11.6072 16.1972 10.5938C15.2079 9.58048 13.9518 8.86796 12.5743 8.53872C11.1969 8.20949 9.75436 8.277 8.41368 8.73343C7.073 9.18987 5.88895 10.0166 4.99853 11.1179C4.10812 12.2192 3.54773 13.5502 3.38221 14.9567C3.21669 16.3633 3.45281 17.7879 4.06323 19.0659C4.67366 20.3438 5.63345 21.4228 6.83155 22.178C8.02965 22.9332 9.41709 23.3337 10.8333 23.3333C11.205 23.3333 11.5617 23.2766 11.9167 23.2249C11.8017 23.6116 11.6833 24.0049 11.4933 24.3583C11.3033 24.8716 11.0067 25.3166 10.7117 25.7649C10.465 26.2499 10.03 26.5783 9.71 26.9932C9.375 27.3966 8.91834 27.6649 8.55667 27.9999C8.20167 28.3499 7.73667 28.5249 7.36667 28.7716C6.98 28.9933 6.64334 29.2383 6.28334 29.3549L5.385 29.7249C4.88334 29.9299 4.59667 30.0499 4.59667 30.0499L5.40334 33.2816L6.39834 33.0416C6.71667 32.9616 7.105 32.8682 7.54667 32.7566C7.99834 32.6733 8.48 32.4449 9.01667 32.2366C9.545 31.9982 10.16 31.8399 10.73 31.4583C11.3033 31.0949 11.965 30.7916 12.5483 30.3049C13.1133 29.8033 13.795 29.3683 14.2983 28.7316C14.8483 28.1349 15.3917 27.5083 15.8133 26.7949C16.3017 26.1149 16.6333 25.3683 16.9833 24.6299C17.3 23.8916 17.555 23.1366 17.7633 22.4033C18.1583 20.9333 18.335 19.5366 18.4033 18.3416C18.46 17.1449 18.4267 16.1499 18.3567 15.4299C18.3318 15.1304 18.2962 14.8319 18.25 14.5349Z" fill="#00E676"/>
</svg>
